<svg xmlns="http://www.w3.org/2000/svg" fill="none" viewBox="0 0 128 128">
    <path d="M50.4 78.5a75.1 75.1 0 0 0-28.5 6.9l24.2-65.7c.7-2 1.9-3.2 3.4-3.2h29c1.5 0 2.7 1.2 3.4 3.2l24.2 65.7s-11.6-7-28.5-7L67 45.5c-.4-1.7-1.6-2.8-2.9-2.8-1.3 0-2.5 1.1-2.9 2.7L50.4 78.5Zm-1.1 28.2Zm-4.2-20.2c-2 6.6-.6 15.8 4.2 20.2a17.5 17.5 0 0 1 .2-.7 5.5 5.5 0 0 1 5.7-4.5c2.8.1 4.3 1.5 4.7 4.7.2 1.1.2 2.3.2 3.5v.4c.3 2.7 1.3 5 3.1 6.6 1.8 2.2 4 3.6 7 4.8a3 3 0 0 0-.3-.4c-1.8-5.6-.5-9.9 4.4-12.8l1.5-1.3c2.3-1.6 4.7-3.4 6.9-5.6 4.1-4.2 6-9.2 6.6-14.6.3-2.4-.1-4.7-.6-7.1a60.8 60.8 0 0 1-10.3 2.5c-6.7 1-13.6.2-20.2-1.9a64.8 64.8 0 0 1-8.1-3.1Z" fill="#fff"/>
</svg>
